<svg width="345" height="113" viewBox="0 0 345 113" fill="none" xmlns="http://www.w3.org/2000/svg">
<path fill-rule="evenodd" clip-rule="evenodd" d="M11 1C5.47715 1 1 5.47715 1 11V83C1 88.5229 5.47716 93 11 93H227L249 112.5V93H334C339.523 93 344 88.5229 344 83V11C344 5.47715 339.523 1 334 1H11Z" fill="#E1F4EF"/>
<path d="M227 93L227.332 92.6258C227.24 92.5448 227.122 92.5 227 92.5V93ZM249 112.5L248.668 112.874C248.816 113.005 249.026 113.037 249.205 112.956C249.385 112.875 249.5 112.697 249.5 112.5H249ZM249 93V92.5C248.724 92.5 248.5 92.7239 248.5 93H249ZM1.5 11C1.5 5.75329 5.75329 1.5 11 1.5V0.5C5.20101 0.5 0.5 5.20101 0.5 11H1.5ZM1.5 83V11H0.5V83H1.5ZM11 92.5C5.7533 92.5 1.5 88.2467 1.5 83H0.5C0.5 88.799 5.20102 93.5 11 93.5V92.5ZM227 92.5H11V93.5H227V92.5ZM249.332 112.126L227.332 92.6258L226.668 93.3742L248.668 112.874L249.332 112.126ZM248.5 93V112.5H249.5V93H248.5ZM334 92.5H249V93.5H334V92.5ZM343.5 83C343.5 88.2467 339.247 92.5 334 92.5V93.5C339.799 93.5 344.5 88.799 344.5 83H343.5ZM343.5 11V83H344.5V11H343.5ZM334 1.5C339.247 1.5 343.5 5.7533 343.5 11H344.5C344.5 5.20101 339.799 0.5 334 0.5V1.5ZM11 1.5H334V0.5H11V1.5Z" fill="#09A4B7"/>
</svg>
